# xmcd
#
# Track frame offsets:
#	150
#	12567
#	30210
#	51377
#	69733
#	88880
#	105733
#	120085
#	139371
#	155803
#	177190
#
# Disc length: 2525 seconds
#
# Revision: 1
# Processed by: cddbd v1.4PL0 Copyright (c) Steve Scherf et al.
# Submitted via: audiograbber 1.82.01
#
DISCID=9509db0b
DTITLE=Blues Power - Let's Get Together
DYEAR=1996
DGENRE=Blues
TTITLE0=Introduction
TTITLE1=Badge
TTITLE2=Mr. Blues
TTITLE3=Let's Get Together
TTITLE4=Let Me Rock You
TTITLE5=Merry Go Round
TTITLE6=Running Through The Midnight
TTITLE7=Bold As Love
TTITLE8=Guitar Picker
TTITLE9=Wild Thing
TTITLE10=Bonus Track
EXTD=
EXTT0=
EXTT1=
EXTT2=
EXTT3=
EXTT4=
EXTT5=
EXTT6=
EXTT7=
EXTT8=
EXTT9=
EXTT10=
PLAYORDER=
